<svg width="200" height="200" viewBox="0 0 200 200" fill="none" xmlns="http://www.w3.org/2000/svg">
<path d="M200 100C200 155.228 155.228 200 100 200C44.7715 200 0 155.228 0 100C0 44.7715 44.7715 0 100 0C155.228 0 200 44.7715 200 100Z" fill="black"/>
<path d="M156.215 75H140.362C139.425 70.4403 137.784 66.4347 135.441 62.983C133.139 59.5312 130.327 56.6335 127.003 54.2898C123.722 51.9034 120.078 50.1136 116.073 48.9205C112.067 47.7273 107.891 47.1307 103.544 47.1307C95.6181 47.1307 88.4377 49.1335 82.003 53.1392C75.611 57.1449 70.5186 63.0469 66.726 70.8452C62.976 78.6435 61.101 88.2102 61.101 99.5455C61.101 110.881 62.976 120.447 66.726 128.246C70.5186 136.044 75.611 141.946 82.003 145.952C88.4377 149.957 95.6181 151.96 103.544 151.96C107.891 151.96 112.067 151.364 116.073 150.17C120.078 148.977 123.722 147.209 127.003 144.865C130.327 142.479 133.139 139.56 135.441 136.108C137.784 132.614 139.425 128.608 140.362 124.091H156.215C155.021 130.781 152.848 136.768 149.695 142.053C146.541 147.337 142.621 151.832 137.933 155.54C133.246 159.205 127.983 161.996 122.145 163.913C116.35 165.831 110.149 166.79 103.544 166.79C92.3794 166.79 82.4505 164.062 73.7573 158.608C65.0641 153.153 58.2246 145.398 53.2388 135.341C48.253 125.284 45.7601 113.352 45.7601 99.5455C45.7601 85.7386 48.253 73.8068 53.2388 63.75C58.2246 53.6932 65.0641 45.9375 73.7573 40.483C82.4505 35.0284 92.3794 32.3011 103.544 32.3011C110.149 32.3011 116.35 33.2599 122.145 35.1776C127.983 37.0952 133.246 39.9077 137.933 43.6151C142.621 47.2798 146.541 51.7543 149.695 57.0384C152.848 62.2798 155.021 68.267 156.215 75Z" fill="white"/>
</svg>
